<svg xmlns="http://www.w3.org/2000/svg" width="135" height="40" viewBox="0 0 135 40"><path fill="#A6A6A6" d="M130.23 40H4.76C2.153 40 0 37.872 0 35.267V4.727C0 2.12 2.153 0 4.76 0h125.468C132.834 0 135 2.12 135 4.726v30.54c0 2.606-2.166 4.734-4.77 4.734z"/><path d="M134.032 35.268c0 2.116-1.714 3.83-3.834 3.83H4.728c-2.118 0-3.838-1.714-3.838-3.83V4.725C.89 2.61 2.61.89 4.73.89h125.467c2.12 0 3.834 1.72 3.834 3.835l.002 30.543z"/><g fill="#FFF"><path d="M30.16 19.784c-.03-3.223 2.638-4.79 2.76-4.864-1.51-2.203-3.853-2.504-4.676-2.528-1.967-.207-3.875 1.177-4.877 1.177-1.022 0-2.565-1.158-4.228-1.124-2.14.033-4.143 1.272-5.24 3.196-2.267 3.923-.577 9.688 1.594 12.86 1.086 1.552 2.355 3.286 4.016 3.225 1.625-.067 2.232-1.036 4.193-1.036 1.943 0 2.513 1.037 4.207.998 1.744-.028 2.842-1.56 3.89-3.127 1.255-1.78 1.76-3.532 1.78-3.622-.04-.014-3.388-1.29-3.42-5.154zM26.96 10.306c.873-1.093 1.47-2.58 1.305-4.09-1.265.057-2.848.875-3.758 1.945-.806.943-1.526 2.487-1.34 3.94 1.42.105 2.88-.718 3.792-1.794z"/></g><g fill="#FFF"><path d="M45.175 31.504H43.23V18.742h1.945v12.762zM50.25 19.048c-.515 1.812-1.127 3.3-1.835 4.464l-1.206.126c.527-1.44.905-2.91 1.133-4.41l1.908-.18zM59.773 31.504h-2.07L56.57 27.94h-3.943l-1.08 3.564H49.53l3.907-12.132h2.412l3.923 12.132zm-3.546-5.06L55.2 23.278c-.107-.323-.31-1.086-.61-2.286h-.037c-.12.517-.312 1.28-.576 2.287l-1.008 3.168h3.257zM69.816 27.02c0 1.49-.402 2.665-1.207 3.53-.72.768-1.615 1.15-2.683 1.15-1.152 0-1.98-.413-2.484-1.24h-.036v4.607h-1.944v-9.433c0-.937-.024-1.896-.072-2.88h1.71l.11 1.387h.035c.648-1.044 1.632-1.565 2.952-1.565 1.032 0 1.893.408 2.583 1.224.69.816 1.036 1.89 1.036 3.22zm-1.98.074c0-.852-.192-1.554-.576-2.105-.42-.577-.984-.865-1.692-.865-.48 0-.916.16-1.305.478-.39.317-.645.734-.765 1.25-.06.24-.09.438-.09.594v1.458c0 .637.195 1.174.585 1.61.39.44.897.658 1.52.658.733 0 1.303-.282 1.71-.846.41-.565.613-1.308.613-2.233zM79.88 27.02c0 1.49-.403 2.665-1.208 3.53-.72.768-1.613 1.15-2.682 1.15-1.152 0-1.98-.413-2.484-1.24h-.035v4.607h-1.944v-9.433c0-.937-.023-1.896-.07-2.88h1.71l.106 1.387h.037c.647-1.044 1.63-1.565 2.95-1.565 1.033 0 1.893.408 2.584 1.224.69.816 1.035 1.89 1.035 3.22zm-1.982.074c0-.852-.19-1.554-.576-2.105-.42-.577-.984-.865-1.69-.865-.48 0-.917.16-1.306.478-.39.317-.646.734-.766 1.25-.06.24-.09.438-.09.594v1.458c0 .637.195 1.174.584 1.61.39.44.898.658 1.52.658.733 0 1.304-.282 1.712-.846.407-.565.612-1.308.612-2.233zM91.127 28.103c0 1.03-.36 1.87-1.076 2.52-.79.708-1.892 1.062-3.304 1.062-1.307 0-2.354-.252-3.145-.756l.45-1.62c.852.516 1.79.773 2.81.773.73 0 1.302-.165 1.71-.496.408-.33.613-.772.613-1.325 0-.493-.168-.907-.504-1.244-.337-.336-.896-.65-1.675-.938-2.125-.793-3.188-1.953-3.188-3.48 0-.997.373-1.814 1.117-2.45.744-.638 1.734-.957 2.97-.957 1.105 0 2.022.192 2.755.576l-.487 1.582c-.684-.372-1.46-.558-2.322-.558-.683 0-1.218.168-1.6.504-.325.3-.487.666-.487 1.1 0 .478.186.874.56 1.187.32.288.91.6 1.763.936 1.043.42 1.81.913 2.303 1.478s.737 1.264.737 2.105zM97.553 24.214h-2.14v4.248c0 1.08.376 1.62 1.132 1.62.348 0 .637-.03.865-.09l.053 1.476c-.383.145-.887.216-1.512.216-.767 0-1.366-.233-1.798-.702-.434-.468-.648-1.253-.648-2.357v-4.41h-1.28v-1.458h1.28v-1.602l1.908-.576v2.177h2.14v1.457zM107.22 27.06c0 1.342-.386 2.446-1.153 3.31-.805.89-1.87 1.333-3.203 1.333-1.285 0-2.31-.426-3.07-1.278-.762-.852-1.143-1.926-1.143-3.222 0-1.356.394-2.466 1.18-3.33.786-.864 1.845-1.296 3.177-1.296 1.285 0 2.316.426 3.096 1.277.743.828 1.116 1.896 1.116 3.205zm-2.017.06c0-.806-.174-1.497-.523-2.075-.408-.697-.988-1.047-1.746-1.047-.78 0-1.373.35-1.78 1.047-.35.578-.522 1.28-.522 2.11 0 .81.174 1.5.52 2.077.42.698 1.01 1.048 1.765 1.048.744 0 1.326-.355 1.746-1.065.358-.59.54-1.288.54-2.094zM113.535 24.466c-.19-.036-.395-.054-.61-.054-.685 0-1.214.258-1.585.773-.324.457-.486 1.033-.486 1.73v4.59h-1.943l.02-5.995c0-1.008-.024-1.926-.073-2.754h1.693l.07 1.674h.055c.205-.576.527-1.037.973-1.386.432-.312.9-.468 1.404-.468.18 0 .342.012.484.035v1.856zM122.23 26.716c0 .35-.025.642-.072.882h-5.832c.023.864.307 1.524.846 1.98.492.408 1.13.61 1.908.61.863 0 1.65-.137 2.357-.412l.307 1.35c-.828.36-1.807.54-2.934.54-1.357 0-2.422-.398-3.195-1.197-.773-.8-1.16-1.87-1.16-3.214 0-1.32.36-2.418 1.078-3.294.758-.937 1.777-1.403 3.06-1.403 1.26 0 2.216.466 2.864 1.402.516.744.773 1.662.773 2.754zm-1.853-.504c.012-.576-.115-1.073-.38-1.494-.335-.54-.85-.81-1.548-.81-.636 0-1.15.264-1.548.79-.324.422-.516.926-.576 1.514h4.05z"/></g><g fill="#FFF"><path d="M47.84 7.778h-1.872v5.655H44.92V7.778h-1.862v-.882h4.782v.882zM52.98 10.853c0 .188-.013.346-.038.475H49.8c.012.466.163.82.454 1.067.266.22.608.33 1.028.33.466 0 .89-.074 1.27-.223l.165.728c-.446.194-.973.29-1.58.29-.73 0-1.306-.214-1.723-.644s-.625-1.007-.625-1.73c0-.712.192-1.304.58-1.776.408-.504.957-.756 1.65-.756.678 0 1.192.252 1.54.756.28.4.42.895.42 1.483zm-1-.27c.008-.312-.06-.58-.202-.806-.182-.29-.46-.437-.834-.437-.343 0-.62.142-.835.427-.175.227-.278.498-.31.815h2.18zm.43-3.843l-1.175 1.406h-.728l.844-1.406h1.06zM55.55 13.433h-1.048V6.556h1.048v6.877zM61.293 10.853c0 .188-.014.346-.04.475h-3.142c.014.466.165.82.456 1.067.266.22.608.33 1.028.33.466 0 .89-.074 1.27-.223l.165.728c-.447.194-.974.29-1.582.29-.73 0-1.305-.214-1.722-.644s-.625-1.007-.625-1.73c0-.712.194-1.304.583-1.776.407-.504.956-.756 1.648-.756.68 0 1.194.252 1.543.756.28.4.42.895.42 1.483zm-1-.27c.007-.312-.062-.58-.203-.806-.182-.29-.46-.437-.834-.437-.343 0-.62.142-.835.427-.173.227-.276.498-.31.815h2.183zm.428-3.843l-1.173 1.406h-.727l.844-1.406h1.057zM66.18 8.845l-.202.795c-.266-.13-.57-.194-.912-.194-.46 0-.823.154-1.092.46-.268.308-.402.698-.402 1.17 0 .498.14.892.422 1.183s.64.436 1.072.436c.323 0 .64-.064.95-.194l.146.786c-.343.162-.775.243-1.3.243-.718 0-1.29-.217-1.717-.654s-.64-1.02-.64-1.75.23-1.332.688-1.8 1.076-.703 1.853-.703c.44 0 .82.073 1.135.222zM71.71 13.433H70.66v-2.68c0-.845-.316-1.268-.95-1.268-.485 0-.82.245-1 .735-.032.103-.05.23-.05.377v2.835h-1.047V6.556h1.048v2.84h.02c.33-.516.8-.774 1.417-.774.434 0 .79.142 1.076.427.355.354.533.882.533 1.58v2.803zM77.084 13.433h-.94l-.08-.543h-.028c-.322.433-.78.65-1.377.65-.446 0-.806-.143-1.077-.427-.246-.258-.37-.58-.37-.96 0-.576.24-1.015.724-1.32.482-.303 1.16-.452 2.033-.445V10.3c0-.62-.326-.93-.98-.93-.464 0-.874.116-1.228.348l-.213-.688c.437-.27.978-.407 1.616-.407 1.232 0 1.85.65 1.85 1.95v1.736c0 .47.023.845.068 1.123zm-1.088-1.62v-.727c-1.156-.02-1.734.297-1.734.95 0 .246.066.43.2.553.136.122.308.183.513.183.23 0 .445-.073.64-.218.198-.146.32-.33.364-.558.01-.05.016-.113.016-.184zM81.342 9.64c-.104-.02-.213-.028-.33-.028-.367 0-.652.14-.854.417-.174.245-.262.555-.262.93v2.474H78.85l.01-3.23c0-.543-.014-1.038-.04-1.484h.913l.04.902h.028c.11-.31.284-.56.524-.747.232-.168.484-.252.756-.252.098 0 .186.006.262.02v.998zM86.812 8.72c-.025.38-.04.827-.04 1.338v2.696c0 1.015-.226 1.727-.677 2.134-.414.375-.996.562-1.746.562-.655 0-1.183-.123-1.583-.37l.242-.804c.394.24.84.36 1.34.36.923 0 1.386-.5 1.386-1.495v-.455h-.02c-.29.48-.754.718-1.387.718-.57 0-1.04-.216-1.407-.65-.37-.433-.553-.983-.553-1.65 0-.755.213-1.367.64-1.832.394-.432.876-.65 1.444-.65.64 0 1.1.25 1.38.748h.017l.04-.65h.922zm-1.085 2.696v-.834c0-.317-.1-.588-.297-.815-.2-.227-.46-.34-.785-.34-.357 0-.65.15-.88.447-.23.298-.347.695-.347 1.193 0 .453.107.818.322 1.096.22.304.52.456.904.456.234 0 .443-.07.63-.21.185-.138.315-.327.394-.566.04-.118.06-.26.06-.428zM92.516 10.853c0 .188-.014.346-.04.475h-3.142c.014.466.164.82.455 1.067.265.22.608.33 1.028.33.465 0 .89-.074 1.27-.223l.165.728c-.447.194-.973.29-1.582.29-.73 0-1.304-.214-1.72-.644-.418-.43-.625-1.007-.625-1.73 0-.712.193-1.304.582-1.776.406-.504.955-.756 1.648-.756.678 0 1.193.252 1.54.756.282.4.42.895.42 1.483zm-1-.27c.008-.312-.06-.58-.203-.806-.182-.29-.46-.437-.834-.437-.343 0-.622.142-.835.427-.174.227-.277.498-.31.815h2.18zM96.53 9.64c-.103-.02-.212-.028-.33-.028-.368 0-.65.14-.853.417-.174.245-.262.555-.262.93v2.474h-1.05l.01-3.23c0-.543-.01-1.038-.036-1.484h.91l.038.902h.03c.108-.31.284-.56.522-.747.234-.168.486-.252.758-.252.096 0 .184.006.262.02v.998zM104.893 13.433h-.932l-.048-.757h-.03c-.296.576-.8.864-1.51.864-.57 0-1.042-.223-1.417-.67s-.562-1.024-.562-1.735c0-.763.203-1.38.61-1.853.394-.44.88-.66 1.454-.66.635 0 1.078.213 1.33.64h.02V6.556h1.047v5.607c0 .46.013.882.04 1.27zm-1.086-1.988v-.786c0-.137-.01-.247-.03-.33-.058-.253-.185-.465-.38-.636s-.428-.257-.7-.257c-.39 0-.696.155-.92.466s-.337.708-.337 1.193c0 .466.107.844.322 1.135.227.31.53.466.914.466.344 0 .62-.13.828-.388.2-.24.303-.527.303-.863zM110.246 13.433h-.94l-.077-.543h-.03c-.324.433-.783.65-1.377.65-.447 0-.807-.143-1.078-.427-.246-.258-.367-.58-.367-.96 0-.576.24-1.015.723-1.32.48-.303 1.16-.452 2.032-.445V10.3c0-.62-.326-.93-.977-.93-.465 0-.875.116-1.23.348l-.213-.688c.44-.27.98-.407 1.617-.407 1.233 0 1.85.65 1.85 1.95v1.736c-.002.47.02.845.066 1.123zm-1.086-1.62v-.727c-1.158-.02-1.736.297-1.736.95 0 .246.068.43.203.553.135.122.305.183.51.183.232 0 .445-.073.643-.218.195-.146.316-.33.36-.558.014-.05.02-.113.02-.184zM116.105 13.433h-1.05v-2.7c0-.832-.315-1.248-.948-1.248-.31 0-.562.114-.758.343-.194.23-.292.5-.292.808v2.796h-1.047v-3.366c0-.414-.013-.863-.038-1.35h.922l.05.738h.028c.12-.23.303-.418.543-.57.283-.175.602-.264.95-.264.44 0 .806.142 1.097.427.36.35.543.87.543 1.562v2.823zM120.83 12.08c0 .437-.162.79-.484 1.054-.324.265-.77.397-1.34.397-.537 0-.992-.106-1.367-.32l.222-.775c.363.22.748.33 1.154.33.537 0 .805-.197.805-.592 0-.174-.056-.318-.173-.432-.117-.112-.324-.224-.62-.333-.84-.31-1.26-.763-1.26-1.358 0-.408.153-.748.464-1.02s.722-.407 1.233-.407c.465 0 .863.095 1.193.285l-.225.753c-.302-.18-.622-.27-.958-.27-.22 0-.393.052-.516.155-.12.104-.184.235-.184.397 0 .16.064.293.193.396.11.097.324.203.64.32.817.308 1.225.782 1.225 1.42z"/></g></svg>