<svg width="135" height="40" viewBox="0 0 135 40" xmlns="http://www.w3.org/2000/svg"><title>Play Store (FR)</title><defs><linearGradient x1="91.488%" y1="4.948%" x2="-38.352%" y2="71.907%" id="a"><stop stop-color="#00A0FF" offset="0%"/><stop stop-color="#00A1FF" offset="1%"/><stop stop-color="#00BEFF" offset="26%"/><stop stop-color="#00D2FF" offset="51%"/><stop stop-color="#00DFFF" offset="76%"/><stop stop-color="#00E3FF" offset="100%"/></linearGradient><linearGradient x1="107.685%" y1="50%" x2="-130.64%" y2="50%" id="b"><stop stop-color="#FFE000" offset="0%"/><stop stop-color="#FFBD00" offset="41%"/><stop stop-color="#FFA500" offset="78%"/><stop stop-color="#FF9C00" offset="100%"/></linearGradient><linearGradient x1="86.219%" y1="17.877%" x2="-50.15%" y2="194.703%" id="c"><stop stop-color="#FF3A44" offset="0%"/><stop stop-color="#C31162" offset="100%"/></linearGradient><linearGradient x1="-18.754%" y1="-54.052%" x2="42.121%" y2="24.917%" id="d"><stop stop-color="#32A071" offset="0%"/><stop stop-color="#2DA771" offset="7%"/><stop stop-color="#15CF74" offset="48%"/><stop stop-color="#06E775" offset="80%"/><stop stop-color="#00F076" offset="100%"/></linearGradient></defs><g fill-rule="nonzero" fill="none"><rect fill="#000" width="135" height="40" rx="5"/><path d="M130 .8c2.32 0 4.2 1.88 4.2 4.2v30c0 2.32-1.88 4.2-4.2 4.2H5C2.68 39.2.8 37.32.8 35V5C.8 2.68 2.68.8 5 .8h125zm0-.8H5C2.24 0 0 2.24 0 5v30c0 2.76 2.24 5 5 5h125c2.76 0 5-2.24 5-5V5c0-2.76-2.24-5-5-5z" fill="#A6A6A6"/><path d="M68.14 21.75c-2.345.01-4.237 1.92-4.23 4.263.007 2.345 1.912 4.24 4.257 4.237 2.344-.004 4.243-1.905 4.243-4.25.016-1.136-.43-2.23-1.234-3.03-.805-.802-1.9-1.242-3.036-1.22zm0 6.83c-1.057.074-2.05-.506-2.508-1.462-.457-.955-.283-2.093.44-2.87.72-.775 1.843-1.03 2.83-.644.986.387 1.635 1.337 1.638 2.396.033.663-.204 1.31-.656 1.796-.452.486-1.08.77-1.744.784zm-9.31-6.83c-2.346.006-4.244 1.91-4.24 4.257.004 2.346 1.907 4.245 4.253 4.243 2.346-.002 4.247-1.904 4.247-4.25.016-1.136-.43-2.23-1.234-3.03-.805-.802-1.9-1.242-3.036-1.22h.01zm0 6.83c-1.057.078-2.055-.5-2.515-1.454-.46-.955-.288-2.095.432-2.872.72-.778 1.844-1.036 2.83-.65.99.385 1.64 1.336 1.643 2.396.033.663-.204 1.31-.656 1.796-.452.486-1.08.77-1.744.784h.01zm-11.09-5.52v1.8h4.32c-.068.848-.42 1.648-1 2.27-.874.89-2.083 1.37-3.33 1.32-2.65 0-4.8-2.15-4.8-4.8s2.15-4.8 4.8-4.8c1.218-.02 2.394.444 3.27 1.29l1.27-1.27c-1.195-1.21-2.83-1.885-4.53-1.87-2.42-.094-4.7 1.144-5.938 3.226-1.24 2.082-1.24 4.676 0 6.758 1.238 2.082 3.517 3.32 5.938 3.226 1.732.078 3.413-.596 4.61-1.85 1.048-1.15 1.607-2.664 1.56-4.22.003-.38-.03-.757-.1-1.13l-6.07.05zm45.31 1.4c-.534-1.57-1.982-2.65-3.64-2.71-1.106-.002-2.163.453-2.92 1.26-.758.804-1.15 1.887-1.08 2.99-.025 1.13.41 2.22 1.207 3.022.796.8 1.884 1.245 3.013 1.228 1.42.008 2.75-.7 3.54-1.88l-1.45-1c-.44.734-1.234 1.182-2.09 1.18-.886.034-1.703-.478-2.06-1.29l5.69-2.35-.21-.45zm-5.8 1.42c-.04-.625.17-1.24.59-1.706.417-.467 1.004-.746 1.63-.774.66-.043 1.28.31 1.58.9l-3.8 1.58zM82.63 30h1.87V17.5h-1.87V30zm-3.06-7.3h-.07c-.57-.637-1.385-1-2.24-1-2.27.11-4.054 1.982-4.054 4.255 0 2.273 1.784 4.145 4.054 4.255.858.014 1.678-.352 2.24-1h.06v.61c0 1.63-.87 2.5-2.27 2.5-.954-.022-1.8-.62-2.14-1.51l-1.63.68c.628 1.527 2.12 2.52 3.77 2.51 2.19 0 4-1.29 4-4.43V22h-1.72v.7zm-2.14 5.88c-1.337-.118-2.363-1.238-2.363-2.58s1.026-2.462 2.363-2.58c.646.033 1.25.326 1.68.81.426.487.64 1.125.59 1.77.055.648-.157 1.29-.588 1.778-.43.487-1.042.777-1.692.802h.01zm24.38-11.08h-4.47V30h1.87v-4.74h2.61c1.453.104 2.842-.61 3.6-1.855.758-1.244.758-2.806 0-4.05-.758-1.244-2.147-1.96-3.6-1.855h-.01zm0 6H99.2v-4.26h2.65c1.185 0 2.145.96 2.145 2.145s-.96 2.145-2.145 2.145l-.04-.03zm11.53-1.8c-1.39-.083-2.7.667-3.33 1.91l1.66.69c.334-.616 1-.977 1.7-.92.48-.056.96.083 1.338.386.376.302.614.744.662 1.224v.13c-.6-.318-1.27-.483-1.95-.48-1.79 0-3.6 1-3.6 2.81.036.78.385 1.512.97 2.03.583.518 1.352.778 2.13.72.96.07 1.88-.39 2.4-1.2h.06v1h1.8v-4.81c0-2.19-1.66-3.46-3.79-3.46l-.05-.03zm-.23 6.85c-.61 0-1.46-.31-1.46-1.06 0-1 1.06-1.33 2-1.33.594-.015 1.18.13 1.7.42-.13 1.12-1.063 1.973-2.19 2l-.05-.03zM123.74 22l-2.14 5.42h-.06L119.32 22h-2l3.33 7.58-1.9 4.21h1.95L125.82 22h-2.08zm-16.81 8h1.87V17.5h-1.87V30z" fill="#FFF"/><path d="M10.44 7.54c-.326.39-.49.892-.46 1.4v22.12c-.03.508.134 1.01.46 1.4l.07.07L22.9 20.15v-.29L10.51 7.47l-.07.07z" fill="url(#a)"/><path d="M27 24.28l-4.1-4.13v-.29l4.1-4.14.09.05L32 18.56c1.4.79 1.4 2.09 0 2.89l-4.89 2.78-.11.05z" fill="url(#b)"/><path d="M27.12 24.22L22.9 20 10.44 32.46c.59.518 1.462.543 2.08.06l14.61-8.3" fill="url(#c)"/><path d="M27.12 15.78l-14.61-8.3c-.618-.483-1.49-.458-2.08.06L22.9 20l4.22-4.22z" fill="url(#d)"/><path d="M27 24.13l-14.49 8.25c-.593.443-1.407.443-2 0l-.07.07.07.07c.592.447 1.408.447 2 0l14.61-8.3-.12-.09z" fill="#000" opacity=".2"/><path d="M10.44 32.32c-.326-.39-.49-.892-.46-1.4v.15c-.03.508.134 1.01.46 1.4l.07-.07-.07-.08zM32 21.3l-5 2.83.09.09L32 21.44c.567-.266.948-.816 1-1.44-.114.565-.483 1.045-1 1.3z" fill="#000" opacity=".12"/><path d="M12.51 7.62L32 18.7c.517.255.886.735 1 1.3-.052-.624-.433-1.174-1-1.44L12.51 7.48c-1.4-.79-2.54-.13-2.54 1.47v.15c.03-1.61 1.15-2.27 2.54-1.48z" fill="#FFF" opacity=".25"/><path d="M41.28 13V7h1.84c.82-.037 1.618.263 2.21.83.563.58.863 1.363.83 2.17.033.807-.267 1.59-.83 2.17-.592.567-1.39.867-2.21.83h-1.84zm.77-.74h1.06c.61.032 1.204-.185 1.65-.6.423-.446.644-1.046.61-1.66.052-.612-.168-1.216-.6-1.65-.435-.437-1.038-.66-1.65-.61H42l.05 4.52zM47.24 13V7H48v6zM51.07 13.13c-.46-.008-.908-.158-1.28-.43-.414-.283-.707-.71-.82-1.2l.7-.28c.08.323.258.613.51.83.24.22.554.34.88.34.307.01.61-.08.86-.26.235-.163.37-.434.36-.72.013-.3-.122-.587-.36-.77-.345-.233-.727-.405-1.13-.51-.448-.12-.862-.343-1.21-.65-.27-.262-.417-.624-.41-1 0-.43.187-.838.51-1.12.36-.33.833-.505 1.32-.49.445-.02.883.114 1.24.38.285.208.5.497.62.83l-.7.29c-.06-.213-.19-.4-.37-.53-.457-.33-1.073-.33-1.53 0-.198.144-.314.375-.31.62 0 .226.107.438.29.57.258.184.545.323.85.41.252.08.5.173.74.28.212.1.413.22.6.36.198.14.356.33.46.55.11.242.164.505.16.77.005.27-.057.54-.18.78-.112.217-.277.403-.48.54-.197.135-.412.24-.64.31-.22.066-.45.1-.68.1zM55 13h-.77V7h2c.49-.006.962.176 1.32.51.358.33.56.794.56 1.28s-.202.95-.56 1.28c-.357.335-.83.517-1.32.51H55V13zm0-3.17h1.29c.296.01.582-.11.78-.33.196-.188.306-.448.306-.72 0-.272-.11-.532-.306-.72-.198-.22-.484-.34-.78-.33H55v2.1zM64 12.22c-1.217 1.21-3.183 1.21-4.4 0-1.18-1.25-1.18-3.2 0-4.45.582-.586 1.374-.916 2.2-.916.826 0 1.618.33 2.2.916 1.185 1.247 1.185 3.203 0 4.45zm-3.83-.5c.9.898 2.36.898 3.26 0 .885-.976.885-2.464 0-3.44-.9-.898-2.36-.898-3.26 0-.885.976-.885 2.464 0 3.44zM65.95 13V7h.94l2.92 4.67V7h.77v6h-.8l-3.05-4.89V13zM71.95 13V7h.77v6zM74.09 13V7h2.17c.45-.01.887.156 1.22.46.338.294.53.722.52 1.17.005.267-.072.528-.22.75-.147.215-.35.385-.59.49.29.096.544.277.73.52.192.245.295.55.29.86.01.467-.188.914-.54 1.22-.348.32-.806.497-1.28.49l-2.3.04zm.77-3.43h1.4c.265.01.52-.095.7-.29.18-.162.284-.39.292-.632.007-.24-.084-.475-.252-.648-.17-.19-.415-.298-.67-.29h-1.47v1.86zm0 2.69h1.55c.274.01.538-.104.72-.31.176-.183.276-.426.28-.68 0-.552-.448-1-1-1h-1.55v1.99zM79.24 13V7H80v5.26h2.6V13zM87.08 7.74h-2.73v1.9h2.46v.72h-2.46v1.9h2.73V13h-3.5V7h3.5zM91.74 13.13c-.46-.008-.908-.158-1.28-.43-.414-.283-.707-.71-.82-1.2l.7-.28c.08.323.258.613.51.83.24.22.554.34.88.34.307.01.61-.08.86-.26.235-.163.37-.434.36-.72.013-.3-.122-.587-.36-.77-.345-.233-.727-.405-1.13-.51-.448-.12-.862-.343-1.21-.65-.27-.262-.417-.624-.41-1 0-.43.187-.838.51-1.12.363-.328.84-.5 1.33-.48.445-.02.883.114 1.24.38.285.208.5.497.62.83l-.7.29c-.06-.213-.19-.4-.37-.53-.457-.33-1.073-.33-1.53 0-.198.144-.314.375-.31.62 0 .226.107.438.29.57.258.184.545.323.85.41.252.08.5.173.74.28.212.1.413.22.6.36.198.14.356.33.46.55.11.242.164.505.16.77.005.27-.057.54-.18.78-.112.217-.277.403-.48.54-.197.135-.412.24-.64.31-.224.063-.457.094-.69.09zM96.94 13.13c-.605.024-1.19-.212-1.61-.65-.424-.466-.647-1.08-.62-1.71V7h.77v3.8c-.02.415.112.824.37 1.15.584.597 1.538.62 2.15.05.258-.326.39-.735.37-1.15V7h.77v3.77c.028.626-.187 1.24-.6 1.71-.415.436-.998.673-1.6.65zM100.4 13V7h2c.49-.006.962.176 1.32.51.682.628.75 1.682.15 2.39-.255.31-.607.525-1 .61l1.68 2.49h-.91L102 10.57h-.86V13h-.74zm.77-3.15h1.24c.292.006.575-.102.79-.3.215-.194.335-.47.33-.76-.002-.268-.106-.525-.29-.72-.198-.22-.484-.34-.78-.33h-1.29v2.11z" stroke="#FFF" stroke-width=".2" fill="#FFF"/></g></svg>
